<svg width="16" height="16" viewBox="0 0 16 16" fill="none" xmlns="http://www.w3.org/2000/svg">
<rect width="16" height="16" fill="#F0F0F0"/>
<rect width="860" height="512" transform="translate(-629 -201)" fill="white"/>
<path fill-rule="evenodd" clip-rule="evenodd" d="M8.11111 15.2222C12.0385 15.2222 15.2222 12.0385 15.2222 8.11111C15.2222 4.18375 12.0385 1 8.11111 1C4.18375 1 1 4.18375 1 8.11111C1 12.0385 4.18375 15.2222 8.11111 15.2222Z" stroke="#5495FF"/>
<path fill-rule="evenodd" clip-rule="evenodd" d="M7.41528 9.22952V8.8441C7.41528 8.51077 7.48646 8.22084 7.62882 7.97431C7.77119 7.72778 8.0316 7.46563 8.41007 7.18785C8.77466 6.92743 9.01511 6.71563 9.13143 6.55243C9.24775 6.38924 9.30591 6.20695 9.30591 6.00556C9.30591 5.77986 9.22258 5.60799 9.05591 5.48993C8.88924 5.37188 8.6566 5.31285 8.35799 5.31285C7.83716 5.31285 7.24341 5.48299 6.57674 5.82327L6.00903 4.68264C6.78334 4.24861 7.60451 4.0316 8.47257 4.0316C9.18786 4.0316 9.75643 4.20347 10.1783 4.54723C10.6002 4.89098 10.8111 5.34931 10.8111 5.92223C10.8111 6.30417 10.7243 6.63403 10.5507 6.91181C10.3771 7.18959 10.0472 7.50208 9.56112 7.84931C9.22778 8.09584 9.01685 8.28334 8.9283 8.41181C8.83976 8.54028 8.79549 8.70868 8.79549 8.91702V9.22952H7.41528ZM7.24862 11.0108C7.24862 10.7191 7.32674 10.4986 7.48299 10.3493C7.63924 10.2 7.86667 10.1254 8.16528 10.1254C8.45348 10.1254 8.67657 10.2017 8.83455 10.3545C8.99254 10.5073 9.07153 10.726 9.07153 11.0108C9.07153 11.2851 8.99167 11.5012 8.83195 11.6592C8.67223 11.8172 8.45001 11.8962 8.16528 11.8962C7.87361 11.8962 7.64792 11.8189 7.4882 11.6644C7.32848 11.5099 7.24862 11.292 7.24862 11.0108Z" fill="#5495FF"/>
</svg>
